<?xml version="1.0" standalone="no"?>
<!DOCTYPE svg PUBLIC "-//W3C//DTD SVG 20010904//EN"
 "http://www.w3.org/TR/2001/REC-SVG-20010904/DTD/svg10.dtd">
<svg version="1.0" xmlns="http://www.w3.org/2000/svg"
 width="1000.000000pt" height="1000.000000pt" viewBox="0 0 1000.000000 1000.000000"
 preserveAspectRatio="xMidYMid meet">
<metadata>
Created by potrace 1.11, written by Peter Selinger 2001-2013
</metadata>
<g transform="translate(0.000000,1000.000000) scale(0.100000,-0.100000)"
fill="#000000" stroke="none">
<path d="M4110 9979 c-73 -61 -123 -101 -310 -249 -113 -90 -230 -183 -260
-207 -30 -24 -62 -50 -70 -56 -9 -7 -58 -46 -110 -88 -52 -41 -140 -111 -195
-155 -55 -43 -106 -84 -113 -91 -8 -7 -22 -18 -33 -23 -19 -11 -19 -73 -19
-3861 l0 -3851 42 -51 c65 -79 65 -78 254 -312 217 -267 184 -227 297 -365 51
-63 178 -218 281 -345 103 -126 202 -248 219 -269 18 -21 35 -43 38 -49 5 -7
682 538 984 791 11 9 56 46 100 82 44 36 82 67 85 70 3 3 52 43 110 90 58 47
114 92 125 102 11 9 153 125 315 258 162 133 304 249 315 258 11 10 52 43 90
74 39 30 126 102 195 159 166 136 269 220 360 294 41 33 77 62 80 65 3 3 29
25 58 49 l52 43 0 3068 c0 2442 -3 3070 -12 3077 -7 6 -67 38 -133 73 -66 35
-151 80 -190 100 -85 46 -513 273 -645 343 -52 27 -117 62 -145 77 -27 15
-104 55 -170 90 -66 35 -176 93 -245 130 -69 37 -174 93 -235 125 -60 32 -177
94 -260 138 -82 44 -188 100 -235 125 -47 24 -91 49 -97 55 -7 5 -13 6 -13 3
0 -4 -12 1 -27 12 -16 10 -86 49 -158 87 -71 37 -166 87 -211 111 -44 24 -83
44 -85 44 -2 -1 -15 -10 -29 -21z"/>
</g>
</svg>
