<?xml version="1.0" standalone="no"?>
<!DOCTYPE svg PUBLIC "-//W3C//DTD SVG 20010904//EN"
 "http://www.w3.org/TR/2001/REC-SVG-20010904/DTD/svg10.dtd">
<svg version="1.0" xmlns="http://www.w3.org/2000/svg"
 width="1000.000000pt" height="1000.000000pt" viewBox="0 0 1000.000000 1000.000000"
 preserveAspectRatio="xMidYMid meet">
<metadata>
Created by potrace 1.11, written by Peter Selinger 2001-2013
</metadata>
<g transform="translate(0.000000,1000.000000) scale(0.100000,-0.100000)"
fill="#000000" stroke="none">
<path d="M3740 9959 c-30 -21 -59 -42 -65 -46 -5 -5 -248 -175 -540 -378 -291
-203 -554 -386 -582 -407 l-53 -39 0 -3844 0 -3844 26 -28 c14 -15 69 -75 122
-133 54 -57 111 -118 127 -135 17 -18 77 -83 135 -146 57 -63 111 -121 120
-130 15 -16 192 -206 250 -269 18 -19 58 -62 89 -96 193 -207 295 -318 352
-381 35 -39 67 -71 72 -72 4 -1 7 2247 7 4994 0 2747 -1 4995 -2 4994 -2 0
-28 -18 -58 -40z"/>
<path d="M4400 5000 l0 -5001 222 169 c266 201 704 532 878 662 69 52 127 97
130 100 3 3 95 73 205 155 110 82 205 153 210 158 9 7 96 73 191 144 28 21
268 202 644 487 102 77 199 150 215 163 17 13 35 27 40 31 6 4 90 67 188 141
l177 133 0 3074 c0 1787 -4 3074 -9 3074 -9 0 -513 243 -541 261 -8 5 -33 18
-55 28 -40 19 -297 144 -800 391 -148 73 -369 181 -490 240 -121 59 -350 172
-510 250 -159 78 -373 183 -475 232 -102 50 -193 94 -202 99 -17 9 -18 -232
-18 -4991z"/>
</g>
</svg>
